<?xml version="1.0" encoding="UTF-8"?>
<svg width="217px" height="27px" viewBox="0 0 217 27" version="1.1" xmlns="http://www.w3.org/2000/svg" xmlns:xlink="http://www.w3.org/1999/xlink">
    <!-- Generator: Sketch 40.2 (33826) - http://www.bohemiancoding.com/sketch -->
    <title>logotype</title>
    <desc>Created with Sketch.</desc>
    <defs></defs>
    <g id="Page-1" stroke="none" stroke-width="1" fill="none" fill-rule="evenodd">
        <g id="logotype">
            <g id="Group">
                <path d="M53.8,7.4 C51.7,6.5 50,6.4 48.7,6.4 C47.8,6.4 46.9,6.5 46.2,7.1 C45.7,7.6 45.5,8.2 45.5,8.7 C45.5,9.1 45.6,9.8 46.2,10.3 C46.7,10.7 47.9,11.1 48.4,11.2 L50.4,11.8 C51.6,12.1 53,12.6 54,13.6 C54.9,14.6 55.1,15.8 55.1,16.7 C55.1,19 54.1,20.3 53.2,21 C52.4,21.6 51,22.3 48.1,22.3 C45.9,22.3 43.9,21.9 41.9,20.9 L42.7,18.6 C44.5,19.5 46.6,20 48.3,20 C49.2,20 50.2,19.8 50.8,19.3 C51.1,19 51.8,18.4 51.8,17.2 C51.8,16.4 51.6,15.7 51,15.2 C50.4,14.7 49.4,14.4 48.9,14.2 L46.8,13.6 C45.5,13.2 44.2,12.7 43.4,12 C42.5,11.2 42.2,10.2 42.2,9.1 C42.2,7.2 43,5.9 43.8,5.3 C45.3,4.1 47.3,4 48.7,4 C50.6,4 52.4,4.3 54.2,5 L53.8,7.4 L53.8,7.4 Z" id="Shape" fill="#000000"></path>
                <path d="M69.7,10.8 C69.7,9.7 69.4,8.4 68.8,7.7 C67.9,6.5 66.7,6.4 65.8,6.4 C65.2,6.4 63.4,6.4 62.3,7.7 C61.5,8.6 61.1,10.7 61.1,12 L69.7,10.8 L69.7,10.8 Z M61.1,14.3 C61.1,14.9 61.2,17.2 62.5,18.7 C63.5,19.8 64.6,20 65.8,20 C66.8,20 68.6,19.9 71.2,18.6 L72,20.9 C69.8,21.9 67.6,22.3 65.5,22.3 C64.1,22.3 61.8,22.1 60.1,20.6 C58.1,18.7 57.9,15.7 57.9,13.2 C57.9,11.3 58.1,7.9 60.1,5.9 C61.9,4.2 64.6,4 65.9,4 C67.2,4 69.6,4.2 71.1,5.7 C72.7,7.4 73,10.4 73,12.6 L61.1,14.3 L61.1,14.3 Z" id="Shape" fill="#000000"></path>
                <path d="M79,4.1 L79,6.6 C79.7,5.8 80.4,5.4 81.3,4.9 C82.5,4.3 83.6,4.1 85,4 L85.4,6.7 C84.3,6.7 82.6,6.9 81.5,7.4 C80.7,7.8 79.7,8.5 79.1,9.7 L79.1,21.8 L76.1,21.8 L76.1,4.4 L79,4.1 L79,4.1 Z" id="Shape" fill="#000000"></path>
                <polygon id="Shape" fill="#000000" points="99.9 4.4 102.8 4.4 96.2 21.8 93.3 21.8 86.6 4.4 90 4.1 95 18"></polygon>
                <path d="M115.8,10.8 C115.8,9.7 115.5,8.4 114.9,7.7 C114,6.5 112.8,6.4 111.9,6.4 C111.3,6.4 109.5,6.4 108.4,7.7 C107.6,8.6 107.2,10.7 107.2,12 L115.8,10.8 L115.8,10.8 Z M107.1,14.3 C107.1,14.9 107.2,17.2 108.5,18.7 C109.5,19.8 110.6,20 111.8,20 C112.8,20 114.6,19.9 117.2,18.6 L118,20.9 C115.8,21.9 113.6,22.3 111.5,22.3 C110.1,22.3 107.8,22.1 106.1,20.6 C104.1,18.7 103.9,15.7 103.9,13.2 C103.9,11.3 104.1,7.9 106.1,5.9 C107.8,4.2 110.6,4.1 111.9,4.1 C113.2,4.1 115.6,4.3 117.1,5.8 C118.7,7.5 119,10.5 119,12.7 L107.1,14.3 L107.1,14.3 Z" id="Shape" fill="#000000"></path>
                <path d="M125.5,4.1 L125.5,6.6 C126.2,5.8 126.9,5.4 127.8,4.9 C129,4.3 130.1,4.1 131.5,4 L131.9,6.7 C130.8,6.7 129.1,6.9 128,7.4 C127.2,7.8 126.2,8.5 125.6,9.7 L125.6,21.8 L122.6,21.8 L122.6,4.4 L125.5,4.1 L125.5,4.1 Z" id="Shape" fill="#000000"></path>
                <path d="M145.2,7.4 C143.1,6.5 141.4,6.4 140.1,6.4 C139.2,6.4 138.3,6.5 137.6,7.1 C137.1,7.6 136.9,8.2 136.9,8.7 C136.9,9.1 137,9.8 137.6,10.3 C138.1,10.7 139.3,11.1 139.8,11.2 L141.8,11.8 C143,12.1 144.4,12.6 145.4,13.6 C146.3,14.6 146.5,15.8 146.5,16.7 C146.5,19 145.5,20.3 144.6,21 C143.8,21.6 142.4,22.3 139.5,22.3 C137.3,22.3 135.3,21.9 133.3,20.9 L134.1,18.6 C135.9,19.5 138,20 139.7,20 C140.6,20 141.6,19.8 142.2,19.3 C142.5,19 143.2,18.4 143.2,17.2 C143.2,16.4 143,15.7 142.4,15.2 C141.8,14.7 140.8,14.4 140.3,14.2 L138.2,13.6 C136.9,13.2 135.6,12.7 134.8,12 C133.9,11.2 133.6,10.2 133.6,9.1 C133.6,7.2 134.4,5.9 135.2,5.3 C136.6,4.2 138.6,4.1 140,4.1 C141.9,4.1 143.7,4.4 145.5,5.1 L145.2,7.4 L145.2,7.4 Z" id="Shape" fill="#000000"></path>
                <path d="M152.3,17.7 C153.6,17.7 154.6,18.7 154.6,20 C154.6,21.3 153.6,22.3 152.3,22.3 C151,22.3 150,21.3 150,20 C150,18.7 151,17.7 152.3,17.7" id="Shape" fill="#000000"></path>
                <path d="M170.6,7.4 C169.2,6.8 167.7,6.4 166.2,6.4 C164.3,6.4 163.2,7 162.6,7.7 C161.5,8.9 161.2,11 161.2,13.2 C161.2,15.5 161.5,17.5 162.6,18.7 C163.6,19.8 164.7,20 165.9,20 C166.7,20 168.4,19.9 170.6,18.6 L171.4,20.9 C169.4,21.9 167.5,22.3 165.6,22.3 C164.2,22.3 161.9,22.1 160.2,20.6 C158.2,18.7 158,15.7 158,13.2 C158,10.8 158.2,7.7 160.2,5.8 C161.5,4.6 163.7,4.1 166.1,4.1 C168,4.1 169.6,4.4 171,5.1 L170.6,7.4 L170.6,7.4 Z" id="Shape" fill="#000000"></path>
                <path d="M178,18.6 C179,19.8 180.4,19.9 181.6,19.9 C182.8,19.9 184.2,19.8 185.2,18.6 C186.4,17.2 186.5,14 186.5,13.1 C186.5,12.2 186.4,9 185.2,7.6 C184.2,6.4 182.8,6.3 181.6,6.3 C180.4,6.3 179,6.4 178,7.6 C176.8,9 176.7,12.2 176.7,13.1 C176.7,14.1 176.8,17.2 178,18.6 M175.8,5.7 C177.5,4.1 180.1,4 181.7,4 C183.2,4 185.8,4.1 187.6,5.7 C189.6,7.5 189.8,10.7 189.8,13.1 C189.8,15.5 189.6,18.7 187.6,20.5 C185.9,22.1 183.3,22.2 181.7,22.2 C180.2,22.2 177.6,22.1 175.8,20.5 C173.8,18.7 173.6,15.5 173.6,13.1 C173.6,10.8 173.8,7.6 175.8,5.7" id="Shape" fill="#000000"></path>
                <path d="M196.1,4.1 L196.1,6.4 C197.8,4.4 200,4.1 201.5,4.1 C202.6,4.1 204.8,4.2 205.8,6.6 C206.5,5.6 208,4.1 211.2,4.1 C213.5,4.1 214.7,4.9 215.4,5.5 C216.7,6.8 216.8,8.9 216.8,10.7 L216.8,21.9 L213.8,21.9 L213.8,10.7 C213.8,9 213.6,8.1 213.2,7.6 C212.8,7 212,6.4 210.9,6.4 C209.4,6.4 207.4,7.5 206.5,9.6 L206.5,21.9 L203.5,21.9 L203.5,10.7 C203.5,9.5 203.4,8.4 202.9,7.6 C202.5,6.9 201.7,6.4 200.6,6.4 C199,6.4 197.2,7.6 196.2,9.6 L196.2,21.9 L193.2,21.9 L193.2,4.4 L196.1,4.1 L196.1,4.1 Z" id="Shape" fill="#000000"></path>
                <path d="M22.9,19.7 C22.6,19.7 22.3,19.4 22.3,19 C22.3,18.6 22.6,18.4 22.9,18.4 C23.2,18.4 23.5,18.7 23.5,19 C23.5,19.4 23.2,19.7 22.9,19.7 M21.2,19.7 C20.9,19.7 20.6,19.4 20.6,19 C20.6,18.6 20.9,18.4 21.2,18.4 C21.5,18.4 21.8,18.7 21.8,19 C21.8,19.4 21.6,19.7 21.2,19.7 M24.1,16 L2.1,16 C1.6,16 1.2,16.4 1.2,17 L1.2,21.1 C1.2,21.6 1.6,22.1 2.1,22.1 L24.1,22.1 C24.6,22.1 25,21.7 25,21.1 L25,17 C25,16.4 24.6,16 24.1,16" id="Shape" fill="#F42534"></path>
                <path d="M25.2,7.6 C24.9,7.6 24.6,7.3 24.6,6.9 C24.6,6.5 24.9,6.2 25.2,6.2 C25.5,6.2 25.8,6.5 25.8,6.9 C25.8,7.3 25.5,7.6 25.2,7.6 M23.5,7.6 C23.2,7.6 22.9,7.3 22.9,6.9 C22.9,6.5 23.2,6.2 23.5,6.2 C23.8,6.2 24.1,6.5 24.1,6.9 C24.1,7.3 23.9,7.6 23.5,7.6 M26.4,4 L4.4,4 C3.9,4 3.5,4.4 3.5,5 L3.5,9.1 C3.5,9.6 3.9,10.1 4.4,10.1 L26.4,10.1 C26.9,10.1 27.3,9.7 27.3,9.1 L27.3,4.9 C27.3,4.4 26.9,4 26.4,4" id="Shape" fill="#F42534"></path>
                <path d="M25.5,11.9 L2.9,11.9 L2.9,11.9 C2,11.9 1.9,10.9 1.9,10.9 L1.9,10.9 L1.9,2.9 L1.9,2.9 C1.9,2.9 1.9,2 2.9,1.9 L2.9,1.9 L24,1.9 L24,1.9 L26.7,1.9 C27,1.9 27.3,1.6 27.3,1.3 L27.3,0.6 C27.3,0.3 27,0 26.7,0 L24,0 L24,0 L3.1,0 C1.4,0 0,1.4 0,3.2 L0,10.7 C0,12.5 1.4,13.9 3.1,13.9 L25.8,13.9 L25.8,13.9 C25.8,13.9 26.7,13.9 26.8,14.8 L26.8,23.2 L26.8,23.2 C26.8,23.9 26.2,24.1 25.9,24.2 L3.9,24.2 L3.9,24.2 L1.7,24.2 C1.4,24.2 1.1,24.5 1.1,24.8 L1.1,25.5 C1.1,25.8 1.4,26.1 1.7,26.1 L3.8,26.1 L14.9,26.1 L25.5,26.1 C27.2,26.1 28.6,24.7 28.6,22.9 L28.6,15.1 C28.6,13.4 27.2,11.9 25.5,11.9" id="Shape" fill="#F42534"></path>
            </g>
        </g>
    </g>
</svg>